<svg width="130" height="184" viewBox="0 0 130 184" fill="none" xmlns="http://www.w3.org/2000/svg">
<path d="M92.6937 91.31C114.208 85.56 129.085 69.2514 129.085 45.7693C129.085 17.0428 104.366 0 70.493 0H0V184H74.1783C110.569 184 130 160.54 130 130.41C130 106.788 114.557 91.31 94.0669 85.79L92.6937 91.31ZM102.535 49.22C102.535 66.0107 88.8028 79.35 60.8803 79.35H27.4648V19.78H62.4817C90.4043 19.78 102.535 30.82 102.535 49.22ZM61.5208 164.22H27.4648V99.13H62.4817C90.4043 99.13 102.993 112.194 102.993 131.56C102.993 151.569 89.4434 164.22 61.5208 164.22Z" fill="black"/>
</svg>
