<svg width="159" height="230" viewBox="0 0 159 230" fill="none" xmlns="http://www.w3.org/2000/svg">
<path d="M79.5 0C29.2652 0 0 35.315 0 94.1732C0 153.031 29.2652 188.346 79.5 188.346C129.735 188.346 159 153.031 159 94.1732C159 35.315 129.735 0 79.5 0ZM82.7261 166.841C50.2348 166.841 27.6522 135.374 27.6522 88.2874C27.6522 47.7657 46.7783 20.6004 76.7348 20.6004C108.996 20.6004 131.348 52.2933 131.348 100.059C131.348 140.128 112.452 166.841 82.7261 166.841ZM59.6826 186.309C84.5696 192.648 111.3 211.89 115.217 230H152.087V229.547C144.483 202.835 117.061 184.498 86.413 178.386L59.6826 186.309Z" fill="black"/>
</svg>
